<svg width="48" height="48" viewBox="0 0 48 48" fill="none" xmlns="http://www.w3.org/2000/svg">
<path d="M18.4 44C16.6 44 15.1 43.4 13.9 42.2C12.7 41 12.1 39.5034 12.1 37.7103C12.1 37.4368 12.125 37.075 12.175 36.625C12.225 36.175 12.2167 35.9167 12.15 35.85C12.0833 35.7833 11.825 35.775 11.375 35.825C10.925 35.875 10.5632 35.9 10.2897 35.9C8.49657 35.9 7 35.3 5.8 34.1C4.6 32.9 4 31.4 4 29.6C4 27.8 4.6 26.3 5.8 25.1C7 23.9 8.5 23.3 10.3 23.3C11.5 23.3 12.525 23.5167 13.375 23.95C14.225 24.3833 14.8667 24.8 15.3 25.2L25.2 15.3C24.8333 14.8667 24.425 14.225 23.975 13.375C23.525 12.525 23.3 11.5 23.3 10.3C23.3 8.5 23.9 7 25.1 5.8C26.3 4.6 27.8 4 29.6 4C31.4 4 32.9 4.6 34.1 5.8C35.3 7 35.9 8.49657 35.9 10.2897C35.9 10.5632 35.875 10.925 35.825 11.375C35.775 11.825 35.7833 12.0833 35.85 12.15C35.9167 12.2167 36.175 12.225 36.625 12.175C37.075 12.125 37.4368 12.1 37.7103 12.1C39.5034 12.1 41 12.7 42.2 13.9C43.4 15.1 44 16.6 44 18.4C44 20.2 43.4 21.7 42.2 22.9C41 24.1 39.5 24.7 37.7 24.7C36.5 24.7 35.475 24.475 34.625 24.025C33.775 23.575 33.1333 23.1667 32.7 22.8L22.8 32.7C23.2 33.1333 23.6167 33.775 24.05 34.625C24.4833 35.475 24.7 36.5 24.7 37.7C24.7 39.5 24.1 41 22.9 42.2C21.7 43.4 20.2 44 18.4 44ZM18.4 40.95C19.3533 40.95 20.1417 40.65 20.765 40.05C21.3883 39.45 21.7 38.6667 21.7 37.7C21.7 36.9333 21.5333 36.2667 21.2 35.7C20.8667 35.1333 20.5667 34.7 20.3 34.4C19.8 33.8 19.5917 33.1583 19.675 32.475C19.7583 31.7917 20.0833 31.1667 20.65 30.6L30.55 20.7C31.1026 20.1296 31.7408 19.8037 32.4645 19.7222C33.1882 19.6407 33.8333 19.8333 34.4 20.3C34.7 20.5667 35.1333 20.8667 35.7 21.2C36.2667 21.5333 36.9333 21.7 37.7 21.7C38.6533 21.7 39.4417 21.3883 40.065 20.765C40.6883 20.1417 41 19.3533 41 18.4C41 17.4467 40.6883 16.6583 40.065 16.035C39.4417 15.4117 38.6533 15.1 37.7 15.1C36.8333 15.1 36.05 15.0667 35.35 15C34.65 14.9333 34.1 14.7 33.7 14.3C33.3 13.9 33.0667 13.35 33 12.65C32.9333 11.95 32.9 11.1667 32.9 10.3C32.9 9.34667 32.5883 8.55833 31.965 7.935C31.3417 7.31167 30.5533 7 29.6 7C28.6467 7 27.8583 7.31167 27.235 7.935C26.6117 8.55833 26.3 9.34667 26.3 10.3C26.3 11.0667 26.4667 11.7333 26.8 12.3C27.1333 12.8667 27.4333 13.3 27.7 13.6C28.2 14.2 28.4083 14.8417 28.325 15.525C28.2417 16.2083 27.9167 16.8333 27.35 17.4L17.45 27.3C16.8974 27.8704 16.2592 28.1963 15.5356 28.2778C14.8119 28.3593 14.1667 28.1667 13.6 27.7C13.3 27.4333 12.8667 27.1333 12.3 26.8C11.7333 26.4667 11.0667 26.3 10.3 26.3C9.33333 26.3 8.55 26.6117 7.95 27.235C7.35 27.8583 7.05 28.6467 7.05 29.6C7.05 30.5533 7.35 31.3417 7.95 31.965C8.55 32.5883 9.33333 32.9 10.3 32.9C11.1667 32.9 11.95 32.9333 12.65 33C13.35 33.0667 13.9 33.3 14.3 33.7C14.7 34.1 14.9333 34.65 15 35.35C15.0667 36.05 15.1 36.8333 15.1 37.7C15.1 38.6667 15.4117 39.45 16.035 40.05C16.6583 40.65 17.4467 40.95 18.4 40.95Z" fill="black"/>
</svg>
